<?xml version="1.0" encoding="utf-8"?>
<!-- Generator: Adobe Illustrator 21.1.0, SVG Export Plug-In . SVG Version: 6.00 Build 0)  -->
<svg version="1.1" id="Layer_1" xmlns="http://www.w3.org/2000/svg" xmlns:xlink="http://www.w3.org/1999/xlink" x="0px" y="0px"
	 viewBox="0 0 420.7 148" style="enable-background:new 0 0 420.7 148;" xml:space="preserve">
<style type="text/css">
	.st0{fill:#ED2D2C;}
</style>
<g>
	<g>
		<path class="st0" d="M58.3,19.8c-0.4-1.2,0.1-2.6,1.3-3.2c0.9-0.5,23.3-11,40.4-5.7c1.4,0.4,2.1,1.9,1.7,3.2
			c-0.4,1.4-1.9,2.1-3.2,1.7c-15.2-4.7-36.5,5.3-36.7,5.4c-1.3,0.6-2.8,0.1-3.5-1.2C58.3,20,58.3,19.9,58.3,19.8z"/>
		<path class="st0" d="M69.4,140.8c-0.1-0.2-0.1-0.3-0.1-0.5c-0.2-1.4,0.8-2.7,2.2-2.9c19.7-2.7,47.7-8.4,62-26
			C146,96,150,75.4,144.2,56.2c-5.6-18.5-19.1-32.3-37-37.9c-1.4-0.4-2.1-1.9-1.7-3.2c0.4-1.4,1.9-2.1,3.2-1.7
			c19.6,6.1,34.4,21.1,40.5,41.3c6.3,20.9,2,43.3-11.6,60c-15.3,18.8-43,24.8-65.3,27.9C70.9,142.7,69.8,141.9,69.4,140.8z"/>
		<path class="st0" d="M19.5,69.8C19.2,69,19.3,68,20,67.3c0.9-1.1,2.6-1.2,3.7-0.3C35,76.6,48.8,80.3,64.8,78
			c12.1-1.8,20.9-6.6,21-6.6c1.3-0.7,2.8-0.2,3.5,1c0.7,1.3,0.2,2.8-1,3.5c-0.4,0.2-9.6,5.2-22.5,7.2c-17.3,2.6-33-1.6-45.5-12.1
			C19.9,70.6,19.6,70.2,19.5,69.8z"/>
		<path class="st0" d="M18.5,87.6c-0.2-0.6-0.2-1.3,0.1-2c0.6-1.3,2.2-1.8,3.5-1.2c22.5,10.9,52.6,1.9,53.7,1.6
			c1.6-0.6,3.3-1,5.2-1.6c5.8-1.6,12.5-3.5,15.2-8c2.1-3.5,0.9-7.2-1-9.5c-1.9-2.3-5.5-4.6-9.6-3.2l-17,5.9
			C43.6,77.7,22.1,52.1,21.2,51c-0.9-1.1-0.8-2.7,0.3-3.6c1.1-0.9,2.7-0.8,3.6,0.3l0,0c0.2,0.2,20.2,24,41.8,16.9l16.9-5.9
			c5.4-1.9,11.4,0,15.3,4.8c3.8,4.7,4.3,10.6,1.4,15.5c-3.8,6.3-11.5,8.4-18.2,10.3c-1.8,0.5-3.4,1-4.9,1.5c0,0,0,0-0.1,0
			C76.1,91.3,44.5,101,19.8,89C19.2,88.7,18.7,88.2,18.5,87.6z"/>
		<path class="st0" d="M24.1,102.7c-0.2-0.6-0.2-1.3,0.1-1.9c0.6-1.3,2.1-1.9,3.4-1.3l0,0c0.3,0.1,25.5,11,61.4-3.8
			c10.7-4.4,22.2-13.3,22.5-25.2c0.2-8-4.5-14.6-12.7-17.6c-9-3.4-18-1.4-28.7,1.6c-8.9,2.5-20.3,4.4-28.9-3
			c-3.1-2.7-5.5-6.1-7.6-9.1c-0.8-1.2-0.5-2.8,0.6-3.6c1.2-0.8,2.8-0.5,3.6,0.6c1.9,2.7,4.1,5.8,6.8,8.1c6.8,5.8,16.5,4.1,24.2,2
			c9.2-2.6,20.6-5.7,32-1.5c10.2,3.8,16.4,12.5,16.1,22.6C116.2,88.7,96.9,98,91,100.5c-38.2,15.7-64.4,4.2-65.5,3.7
			C24.8,103.9,24.3,103.3,24.1,102.7z"/>
		<path class="st0" d="M37,28.6c-0.4-1.2,0.1-2.6,1.3-3.2c1.3-0.6,2.8-0.1,3.4,1.2l0,0c0.1,0.1,5.2,10.8,13.9,13.8
			c3.8,1.3,7.6,0.9,11.8-1.2c1.3-0.6,2.8-0.1,3.5,1.1c0.6,1.3,0.1,2.8-1.1,3.5c-5.4,2.7-10.7,3.2-15.8,1.4
			c-10.7-3.7-16.6-15.9-16.8-16.5C37,28.8,37,28.7,37,28.6z"/>
		<path class="st0" d="M75.7,39.3c-0.4-1.3,0.2-2.7,1.4-3.2c0.7-0.3,16.2-6.7,32.8,2.5c1.3,0.7,1.7,2.3,1,3.5
			c-0.7,1.3-2.3,1.7-3.5,1c-14.4-8-28.1-2.3-28.3-2.3c-1.3,0.6-2.8-0.1-3.4-1.4C75.8,39.5,75.8,39.4,75.7,39.3z"/>
		<path class="st0" d="M34.1,117.6c-0.1-0.3-0.2-0.6-0.1-0.9c0-1.4,1.2-2.6,2.7-2.5c19.1,0.6,36.5-1.2,51.9-5.3
			c12.1-3.3,26.6-8.7,32.3-22.2c5.3-12.6,2.2-28.4-7.5-39.5c-0.9-1.1-0.8-2.7,0.2-3.7c1.1-0.9,2.7-0.8,3.7,0.2
			c11,12.5,14.4,30.5,8.4,44.9c-6.6,15.7-23.5,21.9-35.7,25.2C74,118.1,56,120,36.4,119.3C35.3,119.3,34.4,118.6,34.1,117.6z"/>
		<path class="st0" d="M46.8,130.9c-0.1-0.3-0.1-0.6-0.1-0.9c0-1.4,1.2-2.6,2.7-2.5c9.3,0.2,19-0.7,31.4-3.1
			c20.3-3.9,46-13.4,52.6-36.2c4.1-14.1,1.6-30.4-6.6-42.6c-8-12-18.8-18.4-32.1-19.2C84.6,25.8,77,28.7,77,28.7l-11.2,4.4
			c-10.7,4.2-17.9-4-20.3-9c-0.6-1.3-0.1-2.8,1.2-3.5c1.3-0.6,2.8-0.1,3.4,1.2c0,0.1,1.3,2.7,3.7,4.7c3,2.5,6.2,3.1,9.9,1.6
			l11.2-4.4c0.4-0.1,8.7-3.4,19.8-2.7c10.3,0.6,24.9,4.9,36.1,21.5c9,13.4,11.8,31.3,7.3,46.9c-3.3,11.3-10.9,20.6-22.8,27.7
			c-9.1,5.5-20.5,9.5-33.8,12.1c-12.8,2.5-22.9,3.5-32.5,3.2C48,132.6,47.1,131.9,46.8,130.9z"/>
	</g>
	<g>
		<path d="M176.5,36.9h10.1v30.1c3.5-5.4,9-8.2,16.5-8.2c2.3,0,4.4,0.3,6.5,0.7c2,0.5,4.1,1.4,6.1,2.6s3.9,2.9,5.3,4.9
			s2.7,4.6,3.7,7.8s1.4,6.9,1.4,11s-0.5,7.8-1.4,11c-1,3.2-2.2,5.8-3.7,7.8s-3.3,3.6-5.3,4.8s-4.1,2.2-6.1,2.7
			c-2,0.5-4.2,0.7-6.3,0.7c-7.6,0-13.2-2.7-16.8-8.2v7.2h-10.1V36.9z M211.7,72.4c-2.7-3.1-6.5-4.6-11.2-4.6c-0.6,0-1.1,0-1.6,0.1
			c-0.6,0.1-1.2,0.2-2.1,0.3s-1.7,0.4-2.4,0.7s-1.6,0.7-2.5,1.3s-1.6,1.2-2.3,2s-1.3,1.8-1.8,2.9s-1,2.5-1.3,4v13.5
			c0.4,1.8,1,3.5,1.8,4.8c0.8,1.4,1.6,2.5,2.6,3.3s2,1.4,3.3,1.9c1.2,0.5,2.3,0.8,3.3,1c1,0.2,2,0.3,3,0.3c4.9,0,8.6-1.6,11.3-4.7
			c2.6-3.1,4-7.6,4-13.3C215.8,80,214.4,75.5,211.7,72.4z"/>
		<path d="M233.8,39.8c1.3-1.3,2.7-1.9,4.5-1.9s3.3,0.6,4.6,1.9s1.9,2.8,1.9,4.6s-0.6,3.3-1.9,4.6s-2.8,1.9-4.6,1.9
			s-3.3-0.6-4.5-1.9s-1.9-2.8-1.9-4.6S232.6,41.1,233.8,39.8z M243.4,111.8h-10.1v-52h10.1V111.8z"/>
		<path d="M251.7,66l14.9-19.8h2.6v13.5h14.6v8.8h-14.6v27.3c0,1.4,0.2,2.6,0.4,3.6c0.3,1,0.6,1.8,1.1,2.3c0.4,0.6,1,1,1.8,1.3
			c0.8,0.3,1.5,0.5,2.2,0.6c0.7,0.1,1.6,0.1,2.7,0.1c2.1,0,4.6-0.4,7.5-1.1v9c-2.5,0.8-5.3,1.1-8.2,1.1c-5.6,0-10-1.1-12.9-3.4
			c-3-2.2-4.5-5.8-4.5-10.9v-30h-7.4V66z"/>
		<path d="M296.2,39h10.3v72.8h-10.3V39z"/>
		<path d="M320,39h27.7c2.2,0,4.3,0.1,6.2,0.3c1.9,0.2,4.1,0.6,6.5,1.2c2.4,0.7,4.5,1.5,6.4,2.5c1.9,1.1,3.9,2.5,5.7,4.3
			c1.9,1.9,3.5,4,4.8,6.5s2.3,5.5,3.1,9.1c0.8,3.6,1.2,7.7,1.2,12.1s-0.4,8.5-1.2,12.2c-0.8,3.7-1.9,6.7-3.1,9.2
			c-1.3,2.5-2.9,4.7-4.8,6.6s-3.8,3.4-5.8,4.5s-4.1,1.9-6.5,2.6s-4.6,1.1-6.6,1.3c-2,0.3-4.1,0.4-6.3,0.4H320V39z M330.3,48v54.7
			h16.1c4.4,0,8-0.5,11-1.3s5.5-2.3,7.7-4.4c2.1-2.1,3.7-4.9,4.6-8.4c1-3.5,1.5-7.9,1.5-13.2s-0.5-9.7-1.5-13.3
			c-1-3.5-2.5-6.3-4.6-8.4c-2.1-2.1-4.7-3.6-7.7-4.4s-6.7-1.3-11-1.3H330.3z"/>
		<path class="st0" d="M391.2,99.3c1.6-1.5,3.4-2.3,5.6-2.3s4,0.8,5.6,2.3c1.5,1.6,2.3,3.5,2.3,5.6s-0.8,4.1-2.3,5.6
			c-1.6,1.5-3.4,2.3-5.6,2.3s-4.1-0.8-5.6-2.3c-1.6-1.5-2.3-3.4-2.3-5.5S389.6,100.9,391.2,99.3z"/>
	</g>
</g>
</svg>
